<svg xmlns="http://www.w3.org/2000/svg" width="30" height="30" viewBox="0 0 30 30" preserveAspectRatio="xMinYMin meet"><title>Fabio Lobo</title><path d="M30 15A15 15 0 10.816 19.879l16.064 10A15 15 0 0030 15z" fill="#fc5"></path><path d="M3.868 13.463a12.809 12.809 0 1024.367-5.527 15.07 15.07 0 00-5.022-5.489A12.808 12.808 0 003.868 13.463z" fill="#f50"></path><path d="M16.475 23.814a13.165 13.165 0 013.347-5.161 18.673 18.673 0 013.754-2.428l.02-.008s.529-.221.62-.494l.007-.024c.133-.415.376-1.224.6-2.253.12-.877-.569-.577-.569-.577l-2.137 1.173c-2.365 1.31-2.465.493-2.465.493-.334-1.117 1.758-2.42 1.758-2.42s3.462-2.406 3.524-2.461a1.143 1.143 0 00.345-.785 10.943 10.943 0 00-.179-2.345s-.154-.7-1-.227c-.674.379-1.869.875-3.241 1.589a5.878 5.878 0 01-3.01.293 13.156 13.156 0 00-9.067 1.064 12.893 12.893 0 01-1.447-4.492s-3.97 3.831-3.6 9.161a24.722 24.722 0 00-2.924 5.964 15.018 15.018 0 0016.075 10.006 25.782 25.782 0 01-.411-6.068z" fill="#248"></path><g fill="#fff"><path d="M6.7 10.634a12.586 12.586 0 012.082-1.391 12.893 12.893 0 01-1.447-4.492 9.891 9.891 0 00-.635 5.883z"></path><path d="M25.1 6.524s-.154-.7-1-.227c-.674.379-1.869.875-3.241 1.589-5.05 2.624-12.505 8.214-5.369 21.938a16.393 16.393 0 01.985-6.01 13.165 13.165 0 013.347-5.161 18.673 18.673 0 013.754-2.428l.02-.008s.529-.221.62-.494l.007-.024c.133-.415.376-1.224.6-2.253.12-.877-.569-.577-.569-.577l-2.137 1.173c-2.365 1.31-2.465.493-2.465.493-.334-1.117 1.758-2.42 1.758-2.42s3.462-2.406 3.524-2.461a1.143 1.143 0 00.345-.785 10.943 10.943 0 00-.179-2.345z"></path></g></svg>