<svg xmlns="http://www.w3.org/2000/svg" width="76.424" height="32" viewBox="0 0 76.424 32" preserveAspectRatio="xMinYMin meet"><title>FDR</title><path d="M20.631 8.122a20.535 20.535 0 01.307-3.73 3.785 3.785 0 01.787-1.707 2.006 2.006 0 011.816-.794 1.524 1.524 0 01.314-.006c.307.028.4.173.376.37s-.113.257-.311.442a2.6 2.6 0 00-1.092 2.259 2.784 2.784 0 00.91 2.039 2.919 2.919 0 002.105.822 3.53 3.53 0 002.61-.869 3.81 3.81 0 00.966-2.682 3.336 3.336 0 00-1.49-2.889A6.4 6.4 0 0023.549 0a9.966 9.966 0 00-5.126 1.042 8.311 8.311 0 00-3.357 3.749 12.117 12.117 0 00-1.029 5.7v.744h-3.781v2.685h3.784v13.8a1.5 1.5 0 01-.361 1.126 1.891 1.891 0 01-1.3.342h-1.7v2.136h14.1v-2.136h-2.695a1.6 1.6 0 01-1.142-.32 1.627 1.627 0 01-.317-1.148v-13.8h5.311v-2.685h-5.311z" fill="#fff" fill-rule="evenodd"></path><path d="M43.532 15.444a12.3 12.3 0 01.966 5.575c0 2.519-.035 4.587-1.2 6.2a4.119 4.119 0 01-3.454 1.785 2.612 2.612 0 01-1.9-.712 4.837 4.837 0 01-1.567-2.36 15.211 15.211 0 01-.609-4.787 11.843 11.843 0 011.051-5.609 3.449 3.449 0 013.4-1.983 4.124 4.124 0 013.313 1.891zm-3-12.7h.794a10.446 10.446 0 012.444.1c.336.163.423.289.621.75s.05 9.889.05 9.889a6.967 6.967 0 00-2.5-1.914 8.222 8.222 0 00-3.831-.947 8.532 8.532 0 00-6.714 3.031 11.887 11.887 0 00-2.764 8.2 10.451 10.451 0 002.616 7.413 8.632 8.632 0 006.607 2.733 8.055 8.055 0 003.768-.794 7.753 7.753 0 002.943-2.588l-.122 3.332 10.071-.376v-2.141a16.967 16.967 0 01-2.714-.119 1.216 1.216 0 01-.809-.809 12.976 12.976 0 01-.078-2.855V.122L40.536.549v2.2z" fill="#fff" fill-rule="evenodd"></path><path d="M67.134 29.07c-.477 0-.85.053-1.114-.21a1.479 1.479 0 01-.339-1.133l-.063-4.461a16.3 16.3 0 011.054-6.118 6.806 6.806 0 012.18-3.005c.756-.646 1.613-.907 1.437-.656a1.225 1.225 0 00-.213.376 4.789 4.789 0 00-.389 1.647 3.277 3.277 0 00.753 2.158 3.793 3.793 0 002.24.979 3.888 3.888 0 002.522-.857 4.268 4.268 0 001.22-2.526 4.314 4.314 0 00-4.436-4.477 5.77 5.77 0 00-4.1 1.446 10.093 10.093 0 00-3.059 4.53v-6.015l-9.4.549v2.014h1.5c.781 0 1.336-.057 1.769.38s.345 1.437.345 2.381v11.652a1.282 1.282 0 01-.314 1.029c-.307.336-.709.377-1.409.377h-1.707v2.2h14.224v-2.259h-2.7z" fill="#fff" fill-rule="evenodd"></path><path d="M0 22.535a6.715 6.715 0 116.714 6.717A6.714 6.714 0 010 22.535z" fill="#fcb338" fill-rule="evenodd"></path></svg>